# xmcd
#
# Track frame offsets:
#	150
#	11618
#	23286
#	33492
#	48604
#	64319
#	77705
#	90881
#	108777
#	120059
#	136483
#	152087
#
# Disc length: 2206 seconds
#
# Revision: 0
# Processed by: cddbd v1.4PL0 Copyright (c) Steve Scherf et al.
# Submitted via: audiograbber 1.81.03
#
DISCID=82089c0c
DTITLE=Tom Astor - Trucker Weihnacht
DYEAR=1989
DGENRE=Country
TTITLE0=Tom Astor - Bitte du koche mir grossen kal
TTITLE1=Tom Astor - Daddy holt dich ganz bestimmt
TTITLE2=Tom Astor - Der Weihnachtsmann der fährt '
TTITLE3=Tom Astor - Ein Bäumchen mit 10 bunten Ker
TTITLE4=Tom Astor - Frieden - bleibt ein Weihnacht
TTITLE5=Tom Astor and Jill Morris - In Bethlehem
TTITLE6=Tom Astor - Kleiner Trommler
TTITLE7=Tom Astor and Jill Morris - Mama küsst den Weihnachtsmann
TTITLE8=Tom Astor - Mein Daddy fährt für's Christk
TTITLE9=Tom Astor - Schnee, Schnee, Schnee
TTITLE10=Tom Astor and Jill Morris - Süsser die Glocken nie Klingen
TTITLE11=Tom Astor - Weihnachten zu Hause sein
EXTD=
EXTT0=
EXTT1=
EXTT2=
EXTT3=
EXTT4=
EXTT5=
EXTT6=
EXTT7=
EXTT8=
EXTT9=
EXTT10=
EXTT11=
PLAYORDER=
